<svg xmlns="http://www.w3.org/2000/svg" width="417.115" height="271.226" viewBox="0 0 417.115 271.226"><defs><style>.a{fill:#fff;}.b{fill:#f2f2f2;}.c{fill:#3f3d56;}.d{fill:#2f2e41;}.e{fill:#a0616a;}.f{fill:#e6e6e6;}.g{fill:#ffb8b8;}.h{fill:#ccc;}</style></defs><g transform="translate(0)"><ellipse class="a" cx="20.959" cy="20.959" rx="20.959" ry="20.959" transform="translate(192.112 228.732)"/><path class="b" d="M594.2,447.371c12.938-3.521,26.693-7.194,36.954-15.565,9.169-7.481,15.359-18.9,11.561-30.123-3.791-11.2-15.145-18.661-26.868-22.374a120.025,120.025,0,0,0-20.559-4.192c-7.559-1-15.151-1.815-22.74-2.6q-46.091-4.778-92.53-5.837c-15.276-.349-30.549-.34-45.828-.139-13.645.18-28.015.175-40.673-5.081-9.843-4.087-18.777-11.523-21.52-21.294-3.166-11.279,2.674-22.766,11.051-30.934a88.055,88.055,0,0,1,14.9-11.262c5.775-3.615,11.752-6.974,17.858-10.11a261.556,261.556,0,0,1,37.59-15.705c6.408-2.112,12.911-3.934,19.471-5.614,5.539-1.419,11.1-2.84,16.448-4.774,10.349-3.738,20.191-10.07,22.823-20.45,2.494-9.838-1.711-20.518-9.082-27.826-8.528-8.455-21.387-12.162-33.715-12.762-13.84-.673-27.361,2.466-40.37,6.45-13.874,4.249-27.45,9.135-41.617,12.577a306.131,306.131,0,0,1-42.833,7.216c-7.08.683-14.374,1.455-21.5.932-5.969-.438-11.908-2.029-16.307-5.868-3.772-3.292-6.019-7.816-5.246-12.59.14-.867,1.594-.5,1.454.363-.94,5.812,3.419,11.167,8.79,13.91,6.208,3.171,13.763,3.175,20.674,2.812a296.638,296.638,0,0,0,44.5-5.83c14.375-2.976,28.237-7.229,42.083-11.773,13.15-4.316,26.594-8.528,40.643-9.462,12.19-.811,25.013.8,35.633,6.572,9.333,5.074,16.2,13.536,18.383,23.246a25.4,25.4,0,0,1-8.748,25.66c-8.206,6.856-19.457,9.787-29.943,12.486a293.456,293.456,0,0,0-38.91,12.623,252.312,252.312,0,0,0-36.6,18.649c-11.185,6.927-22.222,15.642-25.76,28a23.565,23.565,0,0,0,1.414,17.3,32.623,32.623,0,0,0,11.192,12.037c11.222,7.484,25.366,9.02,38.921,9.173,15.224.172,30.449-.294,45.678-.067q46.555.692,92.919,5.136,11.618,1.114,23.206,2.464c6.949.809,13.921,1.613,20.753,3.05,12.148,2.555,23.968,7.469,31.519,16.8a26.5,26.5,0,0,1,6.006,13.872,25.91,25.91,0,0,1-3.509,15.182c-5.8,10.339-16.658,16.915-28.191,21.235-6.177,2.314-12.585,4.067-18.98,5.808a.69.69,0,1,1-.4-1.318Z" transform="translate(-244.975 -177.898)"/><ellipse class="b" cx="10.935" cy="10.935" rx="10.935" ry="10.935" transform="translate(46.427 20.732)"/><ellipse class="b" cx="10.935" cy="10.935" rx="10.935" ry="10.935" transform="translate(133.154 41.463)"/><ellipse class="b" cx="10.935" cy="10.935" rx="10.935" ry="10.935" transform="translate(203.107)"/><ellipse class="b" cx="10.935" cy="10.935" rx="10.935" ry="10.935" transform="translate(246.765 46.475)"/><ellipse class="b" cx="10.75" cy="10.75" rx="10.75" ry="10.75" transform="translate(188.129 100.336)"/><ellipse class="b" cx="10.935" cy="10.935" rx="10.935" ry="10.935" transform="translate(112.813 126.213)"/><ellipse class="b" cx="10.935" cy="10.935" rx="10.935" ry="10.935" transform="translate(192.192 166.765)"/><ellipse class="b" cx="10.935" cy="10.935" rx="10.935" ry="10.935" transform="translate(277.524 189.547)"/><ellipse class="b" cx="10.935" cy="10.935" rx="10.935" ry="10.935" transform="translate(378.712 184.535)"/><path class="a" d="M532.387,220.371a60.654,60.654,0,0,0-60.043,59.605c0,.3-.006,2.429-.006,5.21a15.377,15.377,0,0,0,15.374,15.376h0a15.386,15.386,0,0,0,15.383-15.4c0-1.9,0-3.2,0-3.285a29.161,29.161,0,1,1,44.89,24.55l.005.006s-21.884,14.088-28.556,33.415h.006a42.83,42.83,0,0,0-1.765,12.2c0,1.7.1,16.549.293,28.6a15.85,15.85,0,0,0,15.852,15.593h0a15.855,15.855,0,0,0,15.854-15.952c-.067-11.04-.1-23.895-.1-24.828,0-11.867,11.448-23.691,20.852-31.4a63.245,63.245,0,0,0,21.751-34.628,39.533,39.533,0,0,0,1.139-8.581,60.486,60.486,0,0,0-60.923-60.485Z" transform="translate(-321.665 -189.386)"/><path class="c" d="M594.19,746.335H178.25a.544.544,0,1,1,0-1.085H594.189a.544.544,0,1,1,0,1.085Z" transform="translate(-177.662 -475.109)"/><ellipse class="d" cx="13.669" cy="13.669" rx="13.669" ry="13.669" transform="translate(297.271 97.05)"/><path class="e" d="M563.163,556.387h-5.586l-2.658-21.546h8.245Z" transform="translate(-280.428 -291.146)"/><path class="d" d="M543.892,578.626h10.773v6.783H537.109a6.783,6.783,0,0,1,6.783-6.783Z" transform="translate(-270.896 -314.98)"/><path class="e" d="M658.164,556.387h-5.586l-2.658-21.546h8.245Z" transform="translate(-328.436 -291.146)"/><path class="d" d="M638.892,578.626h10.773v6.783H632.109A6.783,6.783,0,0,1,638.892,578.626Z" transform="translate(-318.81 -314.98)"/><ellipse class="e" cx="11.191" cy="11.191" rx="11.191" ry="11.191" transform="translate(297.371 102.086)"/><path class="d" d="M768.388,466.621l5.007-11.5a14.3,14.3,0,0,0-3.167-16.221,14.528,14.528,0,0,0-1.4-1.217,14.1,14.1,0,0,0-8.652-2.994,14.663,14.663,0,0,0-6.106,1.358c-.164.073-.324.15-.488.228-.314.15-.624.314-.925.483a14.434,14.434,0,0,0-7.154,10.881l-2.21,18.517c-.556,1.453-20.385,53.943-13.45,94.017a2.035,2.035,0,0,0,1.74,1.672l7.031.957a2.049,2.049,0,0,0,2.283-1.608l11.8-56.231a1.6,1.6,0,0,1,3.1-.1l16.667,59.133a2.037,2.037,0,0,0,1.964,1.495,2.333,2.333,0,0,0,.4-.037l8.589-1.654a2.037,2.037,0,0,0,1.654-2.192C783.8,547.524,777.1,477.023,768.388,466.621Z" transform="translate(-452.792 -306.05)"/><path class="e" d="M706.065,416.518a4.582,4.582,0,0,0,4.827,5.1l6.255,15.033,4.732-7.014-6.666-13.2a4.607,4.607,0,0,0-9.149.077Z" transform="translate(-444.249 -293.928)"/><path class="e" d="M794,515.969a4.582,4.582,0,0,0,3.839-5.884L811,500.5l-7.924-2.967-11.283,9.558A4.607,4.607,0,0,0,794,515.969Z" transform="translate(-485.59 -340.262)"/><path class="d" d="M733.777,460.817a7.767,7.767,0,0,1-1.5-.148,7.429,7.429,0,0,1-5.444-4.381L718.066,445.6a2.051,2.051,0,0,1,.506-3.044l6.235-3.86a2.051,2.051,0,0,1,2.832.679l6.177,10.176,11.829-8.742A4.429,4.429,0,0,1,750.8,447.9l-11.807,10.77A7.406,7.406,0,0,1,733.777,460.817Z" transform="translate(-448.939 -308.067)"/><path class="d" d="M814.18,480.881h-.048a2.054,2.054,0,0,1-1.508-.715l-5.544-6.467a2.05,2.05,0,0,1,.419-3.04l10.38-6.92-9.4-11.306a4.429,4.429,0,0,1,6.783-5.551l11.429,11.169a7.529,7.529,0,0,1-1.675,12.275l-9.341,9.912a2.054,2.054,0,0,1-1.492.644Z" transform="translate(-494.519 -312.06)"/><path class="f" d="M787.911,449.681a2.1,2.1,0,0,1-.266-.017,2.032,2.032,0,0,1-1.691-1.4l-4.166-12.771a1.4,1.4,0,0,1,.726-1.7l.135-.064c.122-.058.244-.116.368-.171a14.842,14.842,0,0,1,6.2-1.377,14.273,14.273,0,0,1,7.819,2.35,1.426,1.426,0,0,1,.411,1.957l-7.814,12.242A2.03,2.03,0,0,1,787.911,449.681Z" transform="translate(-482.43 -304.69)"/><ellipse class="d" cx="4.473" cy="4.473" rx="4.473" ry="4.473" transform="translate(317.754 95.671)"/><path class="d" d="M781.958,361.365h0a11.847,11.847,0,0,0-11.847,11.847v5.012h6.165l2.948-5.012.885,5.012h18.708l-5.012-5.012a11.847,11.847,0,0,0-11.847-11.847Z" transform="translate(-475.727 -266.138)"/><path class="d" d="M834.809,359.7a6.9,6.9,0,0,1,7.509-4.737c2.85.477,5.1,2.768,6.447,5.327s1.963,5.423,2.866,8.169,2.183,5.506,4.462,7.283,5.776,2.259,8.015.431a9.167,9.167,0,0,1-17.076,3.272,19.829,19.829,0,0,1-1.836-6.949c-.35-2.385-.805-4.853-2.215-6.807s-4.05-3.232-6.29-2.341Z" transform="translate(-503.14 -262.616)"/><path class="c" d="M491.8,323.2h0a15.377,15.377,0,0,1-15.375-15.374c0-2.783,0-4.909.006-5.212a59.92,59.92,0,0,1,7-27.3,60.055,60.055,0,0,0-11.555,34.587c0,.3-.006,2.429-.006,5.21a15.377,15.377,0,0,0,15.374,15.376h0a15.388,15.388,0,0,0,14.8-11.2A15.32,15.32,0,0,1,491.8,323.2Z" transform="translate(-325.627 -219.298)"/><path class="c" d="M578.235,282.728a29.163,29.163,0,0,1,25.361,40.74,29.16,29.16,0,1,0-48.948-30.521A29.1,29.1,0,0,1,578.235,282.728Z" transform="translate(-366.041 -219.345)"/><path class="c" d="M592.065,516.118h0a15.851,15.851,0,0,1-15.852-15.6c-.193-12.051-.293-26.9-.293-28.6a42.835,42.835,0,0,1,1.765-12.2h-.006a43.306,43.306,0,0,1,2.5-5.787,50.146,50.146,0,0,0-7.06,13.077h.006a42.832,42.832,0,0,0-1.765,12.2c0,1.7.1,16.55.293,28.6a15.85,15.85,0,0,0,15.852,15.593h0A15.857,15.857,0,0,0,602.727,512,15.793,15.793,0,0,1,592.065,516.118Z" transform="translate(-375.615 -316.53)"/><path class="g" d="M126.539,556.843h5.586l2.658-21.546h-8.245Z" transform="translate(-68.882 -291.393)"/><path class="d" d="M0,0H17.556V6.783H6.783A6.783,6.783,0,0,1,0,0Z" transform="translate(74.015 270.636) rotate(179.997)"/><path class="g" d="M82.539,556.843h5.586L90.783,535.3H82.538Z" transform="translate(-44.93 -291.393)"/><path class="d" d="M0,0H17.556V6.783H6.783A6.783,6.783,0,0,1,0,0Z" transform="translate(53.967 270.636) rotate(179.997)"/><path class="d" d="M261.988,631.1l-5.456-.287a2.13,2.13,0,0,1-2.013-2.263l6.521-72.2,30.032,8.1,2.893-.789-9.048,63.919a2.14,2.14,0,0,1-1.986,1.8l-5.882.274a2.13,2.13,0,0,1-2.247-2.185l1.066-38.363a.71.71,0,0,0-1.4-.164l-10.278,40.466a2.117,2.117,0,0,1-2.082,1.7C262.065,631.105,262.027,631.1,261.988,631.1Z" transform="translate(-219.497 -372.279)"/><ellipse class="g" cx="11.191" cy="11.191" rx="11.191" ry="11.191" transform="translate(47.469 102.609)"/><path class="h" d="M265.488,453.1l1.23,26.549.445,9.659a2.115,2.115,0,0,0,1.4,1.9l28.858,10.454a2.039,2.039,0,0,0,.729.128,2.116,2.116,0,0,0,2.125-2.182l-1.183-47.736a16.827,16.827,0,0,0-14.008-16.256c-.279-.043-.563-.085-.847-.123a16.517,16.517,0,0,0-13.289,4.3,16.966,16.966,0,0,0-5.461,13.3Z" transform="translate(-225.461 -306.425)"/><path class="g" d="M351.241,544.785a4.585,4.585,0,0,1-2.446-6.938l-9.786-13.013,8.445-.523,8,12.438a4.607,4.607,0,0,1-4.211,8.036Z" transform="translate(-259.027 -354.839)"/><path class="h" d="M331.225,496.1a2.116,2.116,0,0,1-1.158-1.147l-14.744-35.127a5.679,5.679,0,1,1,10.473-4.4l14.744,35.128a2.132,2.132,0,0,1-1.139,2.788l-6.545,2.747a2.115,2.115,0,0,1-1.63.008Z" transform="translate(-246.743 -315.447)"/><path class="c" d="M298.207,512.313,312.368,485.2a2.223,2.223,0,0,1,3-.94l20.555,10.735a2.223,2.223,0,0,1,.94,3L322.7,525.1a2.223,2.223,0,0,1-3,.94l-20.555-10.735A2.223,2.223,0,0,1,298.207,512.313Z" transform="translate(-243.145 -332.899)"/><path class="g" d="M294.666,505.762a4.585,4.585,0,0,0-7.07-2.032l-13.568-9L274,503.19l12.888,7.25a4.607,4.607,0,0,0,7.773-4.678Z" transform="translate(-230.107 -338.736)"/><path class="h" d="M262.084,480.074,251,471.29a7.82,7.82,0,0,1-3.565-12.364l10.068-13.2a4.6,4.6,0,0,1,7.8,4.686l-7.966,13.031L269.045,469a2.13,2.13,0,0,1,.888,3.062l-4.726,7.479a2.133,2.133,0,0,1-1.443.962l-.035.006A2.139,2.139,0,0,1,262.084,480.074Z" transform="translate(-214.68 -311.145)"/><path class="d" d="M281.272,390.789a.973.973,0,0,1,.846-1.285,2.247,2.247,0,0,1,1.584.781,6.3,6.3,0,0,0,1.4,1.2,1.2,1.2,0,0,0,1.584-.286,2.2,2.2,0,0,0-.084-1.71,16.814,16.814,0,0,1-.743-4.452,7.838,7.838,0,0,1,1.121-4.761,6.3,6.3,0,0,1,5.4-2.295,36.267,36.267,0,0,1,6.063,1.074,2.037,2.037,0,0,0,1.983-.333,2.556,2.556,0,0,0,.1-2.28,15.836,15.836,0,0,0-2.4-5.719,8.611,8.611,0,0,0-5.5-3.094,13.187,13.187,0,0,0-6.134.7,16.447,16.447,0,0,0-8.057,5.613,13.321,13.321,0,0,0-2.542,9.842,12.151,12.151,0,0,0,4.5,7.68Z" transform="translate(-231.068 -269.495)"/><path class="c" d="M579.353,696.233a20.957,20.957,0,0,1-7.778-32.573,20.958,20.958,0,1,0,28.509,30.284A20.945,20.945,0,0,1,579.353,696.233Z" transform="translate(-371.131 -430.695)"/></g></svg>