<svg xmlns="http://www.w3.org/2000/svg" width="32.576" height="24.819" viewBox="0 0 32.576 24.819"><defs><style>.a{fill:#ebebee;}</style></defs><path class="a" d="M0,20.551V4.265a1.642,1.642,0,0,0,.06-.209A4.755,4.755,0,0,1,4.834,0Q16.286,0,27.732,0A4.754,4.754,0,0,1,32.571,4.84q.014,7.569-.009,15.137a5.126,5.126,0,0,1-.247,1.558,4.714,4.714,0,0,1-4.647,3.276H6.074c-.487,0-.977.021-1.462-.009a4.621,4.621,0,0,1-4.1-2.664A10.157,10.157,0,0,1,0,20.551ZM11.538,6.027V18.974L23,12.394Z"/><path class="a" d="M169,116.57l5.674,3.152L169,122.979Z" transform="translate(-155.56 -107.3)"/></svg>