<svg xmlns="http://www.w3.org/2000/svg" width="30.435" height="30.433" viewBox="0 0 30.435 30.433"><defs><style>.a{fill:#ebebee;}</style></defs><g transform="translate(0)"><path class="a" d="M30.435,3.983v22.47c-.019.074-.045.149-.059.223a4.326,4.326,0,0,1-2.468,3.3,9.687,9.687,0,0,1-1.456.461H3.983c-.305-.074-.618-.132-.916-.232A4.438,4.438,0,0,1,0,25.858V4.579c0-.1,0-.2.005-.3A4.339,4.339,0,0,1,2.5.477,9.782,9.782,0,0,1,3.983,0h22.47a1.175,1.175,0,0,0,.167.053,4.335,4.335,0,0,1,3.4,2.555A9.76,9.76,0,0,1,30.435,3.983ZM15.316,7.133A8.025,8.025,0,1,0,23.3,15.191,8.052,8.052,0,0,0,15.316,7.133Zm8.836,1.783a2.672,2.672,0,1,0-2.631-2.705A2.691,2.691,0,0,0,24.153,8.916Z" transform="translate(0)"/><path class="a" d="M134.1,126.264a6.24,6.24,0,1,1-6.227-6.255A6.256,6.256,0,0,1,134.1,126.264Z" transform="translate(-112.582 -111.092)"/><path class="a" d="M315.353,72.961a.892.892,0,1,1-.883-.892A.892.892,0,0,1,315.353,72.961Z" transform="translate(-290.27 -66.714)"/></g></svg>