<svg xmlns="http://www.w3.org/2000/svg" width="29.111" height="29.109" viewBox="0 0 29.111 29.109"><defs><style>.a{fill:#ebebee;}</style></defs><g transform="translate(0.05 0.01)"><g transform="translate(-0.05 -0.01)"><path class="a" d="M29.062,3.8V25.288a.738.738,0,0,0-.049.131,4.3,4.3,0,0,1-4.292,3.674q-10.247.014-20.493,0a3.948,3.948,0,0,1-1.76-.384A4.168,4.168,0,0,1-.04,24.719Q-.055,14.545-.046,4.369c0-.095,0-.19,0-.284A4.15,4.15,0,0,1,2.34.446,9.312,9.312,0,0,1,3.761-.01H25.192a1.069,1.069,0,0,0,.16.05,4.241,4.241,0,0,1,3.321,2.494A9.055,9.055,0,0,1,29.062,3.8ZM5.141,20.5c1.81,0,3.591.055,5.368-.018a3.146,3.146,0,0,0,2.831-1.973,3.233,3.233,0,0,0-.355-3.411c-.142-.2-.315-.372-.482-.568.063-.067.12-.128.178-.188a3.352,3.352,0,0,0,.964-2.127A3.4,3.4,0,0,0,10.3,8.577c-1.666-.021-3.333,0-5,0a1.341,1.341,0,0,0-.163.021Zm18.718-3.4A4.36,4.36,0,0,0,20.5,12.078,4.26,4.26,0,0,0,18.03,20.2a4.242,4.242,0,0,0,5.265-1.833l-1.44-.83a2.559,2.559,0,0,1-2.81,1.193A2.461,2.461,0,0,1,17.221,17.1Zm-.836-8.505H16.237v1.671h6.786Z" transform="translate(0.05 0.01)"/><path class="a" d="M97,148.171v-3.365c.019-.014.034-.033.049-.033,1.145,0,2.29-.028,3.434,0a1.694,1.694,0,0,1-.019,3.386C99.319,148.193,98.175,148.171,97,148.171Z" transform="translate(-90.104 -134.474)"/><path class="a" d="M97,220.142v-3.4h1.369c.681,0,1.362-.012,2.043,0a1.689,1.689,0,0,1,1.651,1.374,1.666,1.666,0,0,1-.937,1.852,1.907,1.907,0,0,1-.737.171c-1.088.018-2.176.008-3.264.007C97.09,220.155,97.054,220.147,97,220.142Z" transform="translate(-90.104 -201.34)"/><path class="a" d="M243.4,194.508a2.512,2.512,0,0,1,4.747,0Z" transform="translate(-226.101 -179.117)"/></g></g></svg>