<svg xmlns="http://www.w3.org/2000/svg" width="24.985" height="24.985" viewBox="0 0 24.985 24.985"><defs><style>.a{fill:#ebebee;}</style></defs><path class="a" d="M24.985,3.269V21.715a1.54,1.54,0,0,0-.046.16,3.646,3.646,0,0,1-3.66,3.107q-8.784.007-17.564-.007a3.929,3.929,0,0,1-1.22-.2A3.62,3.62,0,0,1,0,21.227V3.758c0-.081,0-.163,0-.244A3.564,3.564,0,0,1,2.05.392,7.972,7.972,0,0,1,3.269,0H21.715a.941.941,0,0,0,.137.043,3.559,3.559,0,0,1,2.788,2.1A8.012,8.012,0,0,1,24.985,3.269ZM19.059,19.8a.328.328,0,0,0,.018-.065c0-2.172.051-4.345-.019-6.514a3.7,3.7,0,0,0-5.021-3.395c-.261.1-.528.183-.824.289V9.577h-2.9V19.794h2.913V15.85c0-.626-.011-1.253,0-1.879a1.457,1.457,0,0,1,1.971-1.38,1.472,1.472,0,0,1,.953,1.449q0,2.745,0,5.49V19.8ZM5.922,9.577V19.793h2.9V9.577Zm0-4.392v2.9h2.9v-2.9Z"/></svg>