<svg xmlns="http://www.w3.org/2000/svg" width="24.743" height="20.253" viewBox="0 0 24.743 20.253"><defs><style>.a{fill:#ebebee;}</style></defs><g transform="translate(0 -0.003)"><g transform="translate(0 0.003)"><path class="a" d="M24.743,2.708v.048a2.105,2.105,0,0,0-.156.17c-.648.875-1.269,1.77-1.942,2.621a3.2,3.2,0,0,0-.69,2.291,13.218,13.218,0,0,1-.462,4.306,10.222,10.222,0,0,1-5.92,6.868,14.217,14.217,0,0,1-4.179,1.115,19.733,19.733,0,0,1-5.487-.143,13.53,13.53,0,0,1-3.821-1.307C1.392,18.334.721,17.952,0,17.567c1.916-.665,3.82-1.213,5.684-2.017a5.993,5.993,0,0,1-3.137-4.331l.231-.017A5.44,5.44,0,0,1,1.334,6.324l.544.186A5.927,5.927,0,0,1,2.5.3,12.86,12.86,0,0,0,11.29,5.691c-.006-.092-.008-.155-.014-.217a4.619,4.619,0,0,1,.93-3.406,5.717,5.717,0,0,1,7.943-.832.421.421,0,0,0,.472.089C21.628.963,22.638.616,23.648.264c.086-.03.175-.053.311-.095q-.468,1.344-.882,2.539Z" transform="translate(0 -0.003)"/></g></g></svg>