<svg xmlns="http://www.w3.org/2000/svg" width="29.111" height="29.112" viewBox="0 0 29.111 29.112"><defs><style>.a{fill:#ebebee;}</style></defs><g transform="translate(0 -0.016)"><g transform="translate(0 0.016)"><path class="a" d="M105.056,240.88c-.739-.109-1.484-.187-2.214-.329a14.1,14.1,0,0,1-4.464-1.766.29.29,0,0,1-.155-.32,9.8,9.8,0,0,1,1.652-4.775,13.992,13.992,0,0,1,6.692-5.192c.464-.187.941-.343,1.453-.527.171.549.346,1.074.5,1.606a40.222,40.222,0,0,1,1.41,7.492c.091.99.109,1.986.173,2.978.011.185-.08.222-.218.261a14.921,14.921,0,0,1-3.041.536,1.4,1.4,0,0,0-.192.04Z" transform="translate(-91.241 -211.77)"/><path class="a" d="M0,175.924l.089-.578a36.354,36.354,0,0,0,7.64.476,32.843,32.843,0,0,0,7.551-1.253l.937,2.182c-.506.185-.995.352-1.477.541a16.952,16.952,0,0,0-5.275,3.226A12.459,12.459,0,0,0,5.4,187.787c0,.028-.013.055-.027.114a1.636,1.636,0,0,1-.186-.122,14.691,14.691,0,0,1-4.975-8.694c-.09-.5-.142-1.007-.21-1.511Z" transform="translate(0 -162.165)"/><path class="a" d="M18.769,33.416c-3.305,1.208-11.027,1.563-14.149.63a14.914,14.914,0,0,1,7.406-9.736A34.614,34.614,0,0,1,18.769,33.416Z" transform="translate(-4.292 -22.583)"/><path class="a" d="M139.555,10.335A37.529,37.529,0,0,0,132.85,1c.227-.086.421-.168.62-.233a14.069,14.069,0,0,1,8.274-.237,14.576,14.576,0,0,1,5.418,2.824.405.405,0,0,1,.1.333,6.189,6.189,0,0,1-1.635,2.969,14.761,14.761,0,0,1-5.368,3.417C140.038,10.158,139.814,10.237,139.555,10.335Z" transform="translate(-123.409 -0.016)"/><path class="a" d="M261.635,229.291a42.389,42.389,0,0,0-2.115-12.01,19.123,19.123,0,0,1,10.5.794,14.612,14.612,0,0,1-8.386,11.216Z" transform="translate(-241.077 -201.477)"/><path class="a" d="M246.65,67.75a14.51,14.51,0,0,1,3.789,10.007c-.735-.2-1.43-.414-2.136-.578a19.613,19.613,0,0,0-6.538-.438c-.782.084-1.553.224-2.329.339-.122.018-.232.053-.3-.114-.284-.711-.576-1.417-.878-2.155.092-.04.182-.082.274-.118a18.693,18.693,0,0,0,4.854-2.674,9.6,9.6,0,0,0,3.179-4.094C246.585,67.882,246.607,67.839,246.65,67.75Z" transform="translate(-221.328 -62.936)"/></g></g></svg>