<svg xmlns="http://www.w3.org/2000/svg" width="154.84" height="440.647" viewBox="0 0 154.84 440.647"><defs><style>.a,.b,.c{fill:none;}.b{stroke:#ebebee;}.c{stroke:#fff;}.d,.e{stroke:none;}.e{fill:#ebebee;}</style></defs><g transform="translate(-1222.914 -326.436)"><g class="a" transform="translate(1328 500.303) rotate(90)"><path class="d" d="M42,0,56,22.5,42,45H14L0,22.5,14,0Z"/><path class="e" d="M 14.55556106567383 1 L 1.177772521972656 22.5 L 14.55556106567383 44 L 41.4444465637207 44 L 54.82222366333008 22.5 L 41.4444465637207 1 L 14.55556106567383 1 M 14.00000381469727 0 L 42.00000381469727 0 L 56.00000381469727 22.5 L 42.00000381469727 45 L 14.00000381469727 45 L -7.62939453125e-06 22.5 L 14.00000381469727 0 Z"/></g><g class="a" transform="translate(1267.914 528.303) rotate(90)"><path class="d" d="M42,0,56,22.5,42,45H14L0,22.5,14,0Z"/><path class="e" d="M 14.55556106567383 1 L 1.177772521972656 22.5 L 14.55556106567383 44 L 41.4444465637207 44 L 54.82222366333008 22.5 L 41.4444465637207 1 L 14.55556106567383 1 M 14.00000381469727 0 L 42.00000381469727 0 L 56.00000381469727 22.5 L 42.00000381469727 45 L 14.00000381469727 45 L -7.62939453125e-06 22.5 L 14.00000381469727 0 Z"/></g><g class="a" transform="translate(1267.915 628.303) rotate(90)"><path class="d" d="M42,0,56,22.5,42,45H14L0,22.5,14,0Z"/><path class="e" d="M 14.55556106567383 1 L 1.177772521972656 22.5 L 14.55556106567383 44 L 41.4444465637207 44 L 54.82222366333008 22.5 L 41.4444465637207 1 L 14.55556106567383 1 M 14.00000381469727 0 L 42.00000381469727 0 L 56.00000381469727 22.5 L 42.00000381469727 45 L 14.00000381469727 45 L -7.62939453125e-06 22.5 L 14.00000381469727 0 Z"/></g><g class="a" transform="translate(1328 595.303) rotate(90)"><path class="d" d="M42,0,56,22.5,42,45H14L0,22.5,14,0Z"/><path class="e" d="M 14.55556106567383 1 L 1.177772521972656 22.5 L 14.55556106567383 44 L 41.4444465637207 44 L 54.82222366333008 22.5 L 41.4444465637207 1 L 14.55556106567383 1 M 14.00000381469727 0 L 42.00000381469727 0 L 56.00000381469727 22.5 L 42.00000381469727 45 L 14.00000381469727 45 L -7.62939453125e-06 22.5 L 14.00000381469727 0 Z"/></g><g class="a" transform="translate(1328 413.436) rotate(90)"><path class="d" d="M42,0,56,22.5,42,45H14L0,22.5,14,0Z"/><path class="e" d="M 14.55556106567383 1 L 1.177772521972656 22.5 L 14.55556106567383 44 L 41.4444465637207 44 L 54.82222366333008 22.5 L 41.4444465637207 1 L 14.55556106567383 1 M 14.00000381469727 0 L 42.00000381469727 0 L 56.00000381469727 22.5 L 42.00000381469727 45 L 14.00000381469727 45 L -7.62939453125e-06 22.5 L 14.00000381469727 0 Z"/></g><g class="a" transform="translate(1274.006 326.436) rotate(90)"><path class="d" d="M42,0,56,22.5,42,45H14L0,22.5,14,0Z"/><path class="e" d="M 14.55556106567383 1 L 1.177772521972656 22.5 L 14.55556106567383 44 L 41.4444465637207 44 L 54.82222366333008 22.5 L 41.4444465637207 1 L 14.55556106567383 1 M 14.00000381469727 0 L 42.00000381469727 0 L 56.00000381469727 22.5 L 42.00000381469727 45 L 14.00000381469727 45 L -7.62939453125e-06 22.5 L 14.00000381469727 0 Z"/></g><path class="b" d="M3318.5,464.6V433.738" transform="translate(-2013 35.699)"/><path class="b" d="M3318.5,486.87,3264.506,460V382.319" transform="translate(-2013 -2)"/><path class="b" d="M3258.414,631.72V585.972" transform="translate(-2013 -2)"/><path class="b" d="M3279.99,671.6l39.056,25.78-.6-44.934" transform="translate(-2013 -2)"/><path class="b" d="M3319.046,697.375,3390.4,768.73" transform="translate(-2013 -2)"/><path class="c" d="M0,39.7V0" transform="translate(1305.5 556.303)"/></g></svg>