<svg xmlns="http://www.w3.org/2000/svg" width="55.903" height="55.918" viewBox="0 0 55.903 55.918"><defs><style>.a{fill:none;}.b{fill:#fff;}</style></defs><g transform="translate(0 0)"><path class="a" d="M208.3,229.007l19.707,19.707,19.707-19.707L228.007,209.3Zm34.754,1.4-.544.544-14.619,14.619L213.272,230.95l-.544-.544-.544-.544h4.363l.544.544.544.544,10.256,10.256,10.256-10.256.544-.544.544-.544H243.6Zm-.014-2.812.544.544H239.22l-.544-.544-.544-.544-10.241-10.241L217.65,227.05l-.544.544-.544.544H212.2l.544-.544.544-.544,14.6-14.6,14.6,14.6Z" transform="translate(-200.03 -201.059)"/><path class="b" d="M263.187,267.3l-.544.544-.544.544h4.363l.544-.544.544-.544,10.241-10.241L288.033,267.3l.544.544.544.544h4.363l-.544-.544-.544-.544-14.6-14.6Z" transform="translate(-249.931 -241.313)"/><path class="b" d="M291.776,493h-2.834l-.536.544-.544.544-10.256,10.256L267.35,494.087l-.544-.544-.544-.544H261.9l.544.544.544.544,14.619,14.619,14.619-14.619.544-.544.544-.544h-1.537Z" transform="translate(-249.745 -464.197)"/><path class="b" d="M428.052,864.9l-.152.159C427.951,865.009,428,864.958,428.052,864.9Z" transform="translate(-403.714 -809.142)"/><path class="b" d="M94.359,428.952,94.2,428.8C94.251,428.851,94.3,428.9,94.359,428.952Z" transform="translate(-94.2 -404.65)"/><path class="b" d="M152.051,127.455l-3.928-3.907h0L145.97,121.4l-18.721-18.729c-1.935-3.109.812-7.067.812-7.067l-3.936,3.943-2.153,2.153-18,17.989c-.667.435-4.762,2.885-7.676.21l3.812,3.646h0l2.153,2.153,18.026,18.026c.493.768,2.819,4.776.188,7.639l3.638-3.805h0l2.153-2.153,18.794-18.794C148.159,124.759,152.051,127.455,152.051,127.455Zm-27.926,15.8-19.707-19.707,19.707-19.707,19.707,19.707Z" transform="translate(-96.148 -95.6)"/></g></svg>